#!OML:ASF E:\Steps\Project 1\Capture day 1\Session 2\Subject.ASF
:FULLY-SPECIFIED
:DEGREES
251
root 9.19707 12.5301 31.1583 -134.342 3.87903 178.879
lowerback -1.63017 -0.719426 -4.50089
upperback -0.871376 -0.8136 -1.58893
thorax 0.0613886 -0.361968 0.87776
lowerneck -1.06955 -5.67157 1.21436
upperneck -28.2637 -3.36836 6.4707
head -8.51121 -0.885746 2.00356
rclavicle 7.55382e-015 4.77083e-015
rhumerus -24.9968 -10.2918 -83.0985
rradius 31.1807
rwrist -0.144457
rhand -10.582 -49.4352
rfingers 7.12502
rthumb -164.577 101.16
lclavicle 7.55382e-015 4.77083e-015
lhumerus -26.4303 -10.9125 79.8133
lradius 35.1879
lwrist 2.95386
lhand -28.1316 -15.8619
lfingers 7.12502
lthumb -1.51299 14.1124
rfemur -84.4978 7.51171 18.0826
rtibia 88.2155
rfoot -47.6195 -11.1013
rtoes -37.2366
lfemur -87.2474 -2.84867 -19.4229
ltibia 91.891
lfoot -33.0412 -1.05644
ltoes -46.0372
252
root 9.18531 12.6094 31.0455 -135.298 4.08284 178.838
lowerback -1.39022 -0.671752 -4.52451
upperback -1.01178 -0.764246 -1.68507
thorax -0.220594 -0.327897 0.796677
lowerneck -0.503529 -5.57103 1.17509
upperneck -28.0065 -3.32094 6.52426
head -8.52115 -0.926674 2.03927
rclavicle -1.35174e-014 -1.70955e-014
rhumerus -24.6359 -7.06803 -84.3912
rradius 34.8882
rwrist -3.58665
rhand -9.33197 -50.6724
rfingers 7.12502
rthumb -163.373 100.02
lclavicle -1.35174e-014 -1.70955e-014
lhumerus -25.9182 -12.9208 80.3732
lradius 37.1168
lwrist 4.78844
lhand -27.5798 -15.7792
lfingers 7.12502
lthumb -0.980084 14.1983
rfemur -82.4899 7.72518 17.9229
rtibia 87.4939
rfoot -47.657 -11.0454
rtoes -36.5112
lfemur -85.1253 -3.23752 -19.4068
ltibia 90.9653
lfoot -32.5843 -1.26133
ltoes -46.3276
253
root 9.17467 12.6952 30.9384 -135.762 4.16836 178.702
lowerback -1.7549 -0.790166 -4.49791
upperback -0.839555 -0.891772 -1.711
thorax 0.16601 -0.400562 0.747623
lowerneck -1.60999 -5.57257 1.13422
upperneck -27.4919 -3.3342 6.54205
head -8.14189 -0.895734 2.01813
rclavicle 1.19271e-015 5.1684e-015
rhumerus -23.3047 -3.59323 -85.5244
rradius 38.5919
rwrist -6.90184
rhand -11.2238 -50.6323
rfingers 7.12502
rthumb -165.195 99.9166
lclavicle 1.19271e-015 5.1684e-015
lhumerus -24.4562 -14.8414 80.6419
lradius 39.2492
lwrist 6.64496
lhand -28.2105 -15.5473
lfingers 7.12502
lthumb -1.58917 14.4265
rfemur -81.159 7.86274 17.6084
rtibia 86.8517
rfoot -47.5137 -10.7724
rtoes -35.4117
lfemur -83.5998 -3.76421 -19.4068
ltibia 90.1082
lfoot -32.2028 -1.36925
ltoes -46.1022
254
root 9.16667 12.7972 30.8293 -136.275 4.17522 178.607
lowerback -2.0436 -0.781803 -4.3482
upperback -1.18011 -0.864727 -1.82843
thorax -0.0268175 -0.37413 0.542972
lowerneck -0.80265 -5.33414 1.03764
upperneck -27.1934 -3.15275 6.45065
head -8.18607 -0.870572 2.01145
rclavicle -4.37326e-015 3.65764e-014
rhumerus -23.429 -0.660798 -86.2097
rradius 42.6522
rwrist -9.13572
rhand -11.4497 -49.8274
rfingers 7.12502
rthumb -165.413 100.706
lclavicle -4.37326e-015 3.65764e-014
lhumerus -24.5375 -17.1724 80.8539
lradius 42.063
lwrist 7.45376
lhand -29.1054 -16.4652
lfingers 7.12502
lthumb -2.45346 13.5004
rfemur -79.7996 8.10357 17.3375
rtibia 86.2421
rfoot -47.3322 -10.562
rtoes -35.1118
lfemur -81.9593 -4.22006 -19.4234
ltibia 89.1698
lfoot -31.873 -1.45011
ltoes -45.4527
255
root 9.16275 12.9168 30.7144 -136.945 4.17363 178.366
lowerback -2.10958 -0.863376 -4.48652
upperback -1.40085 -0.968329 -1.78148
thorax -0.20922 -0.415688 0.666644
lowerneck -1.21903 -4.96949 0.798674
upperneck -26.2464 -2.85731 6.26385
head -7.79238 -0.733931 1.95322
rclavicle 2.78299e-015 1.39149e-014
rhumerus -23.2116 2.40135 -86.53
rradius 46.5945
rwrist -11.0145
rhand -10.72 -49.7875
rfingers 7.12502
rthumb -164.71 100.798
lclavicle 2.78299e-015 1.39149e-014
lhumerus -23.5455 -19.1809 80.9522
lradius 44.224
lwrist 8.40987
lhand -27.9088 -15.7635
lfingers 7.12502
lthumb -1.29785 14.2123
rfemur -77.0548 7.69357 17.3611
rtibia 84.0556
rfoot -46.5557 -10.7898
rtoes -36.3269
lfemur -80.1368 -4.60159 -19.7247
ltibia 88.3008
lfoot -31.5614 -1.53002
ltoes -44.7154
256
root 9.16223 13.0493 30.5896 -137.653 4.15146 178.138
lowerback -2.24141 -0.908474 -4.63841
upperback -1.61425 -1.01591 -1.77143
thorax -0.349726 -0.428476 0.760223
lowerneck -1.62939 -4.76423 0.643404
upperneck -25.3967 -2.70545 6.29945
head -7.43243 -0.682602 1.96664
rclavicle 1.59028e-014 -3.18055e-015
rhumerus -22.932 4.8859 -86.635
rradius 50.4876
rwrist -11.7073
rhand -9.97977 -51.2207
rfingers 7.12502
rthumb -163.997 99.4203
lclavicle 1.59028e-014 -3.18055e-015
lhumerus -22.9777 -21.4586 80.9587
lradius 46.5475
lwrist 8.01303
lhand -27.6304 -15.5306
lfingers 7.12502
lthumb -1.02895 14.4467
rfemur -75.1023 7.7847 17.1055
rtibia 83.0705
rfoot -46.071 -10.7344
rtoes -37.2093
lfemur -77.874 -5.03311 -19.9452
ltibia 86.7918
lfoot -31.0202 -1.50327
ltoes -44.3119
257
root 9.15743 13.1941 30.4467 -138.419 4.17429 178.04
lowerback -2.44951 -0.915628 -4.59171
upperback -1.88982 -1.01036 -1.80649
thorax -0.517831 -0.413425 0.697217
lowerneck -1.90966 -4.54805 0.502391
upperneck -24.4274 -2.57202 6.34974
head -7.05982 -0.657592 1.98647
rclavicle -5.56597e-015 7.95139e-015
rhumerus -22.8387 7.14365 -86.693
rradius 54.0637
rwrist -11.6079
rhand -7.32839 -51.4085
rfingers 7.12502
rthumb -161.445 99.4565
lclavicle -5.56597e-015 7.95139e-015
lhumerus -22.6555 -23.7122 80.7509
lradius 49.0844
lwrist 7.61915
lhand -27.3958 -15.0856
lfingers 7.12502
lthumb -0.802368 14.8927
rfemur -72.9151 7.84908 17.0107
rtibia 81.9114
rfoot -45.4772 -10.6162
rtoes -37.9088
lfemur -75.3043 -5.35885 -20.1377
ltibia 85.0002
lfoot -30.5047 -1.3918
ltoes -43.9802
258
root 9.15108 13.3462 30.2898 -139.077 4.25535 177.85
lowerback -3.52628 -0.950295 -4.74212
upperback -1.82325 -0.972682 -1.7657
thorax 0.154632 -0.403342 0.80838
lowerneck -1.84669 -4.28159 0.244661
upperneck -24.0172 -2.29612 6.34336
head -6.93757 -0.532593 2.01225
rclavicle -7.55382e-015 -1.07344e-014
rhumerus -22.3095 9.28178 -86.332
rradius 57.3835
rwrist -10.584
rhand -9.73598 -51.7257
rfingers 7.12502
rthumb -163.762 98.9343
lclavicle -7.55382e-015 -1.07344e-014
lhumerus -21.7479 -25.7786 80.3309
lradius 51.4502
lwrist 6.46744
lhand -27.7655 -14.7407
lfingers 7.12502
lthumb -1.15943 15.2359
rfemur -70.7101 7.75817 16.8873
rtibia 80.3422
rfoot -44.4417 -10.8719
rtoes -38.555
lfemur -72.7681 -5.59994 -20.5334
ltibia 83.0487
lfoot -29.7484 -1.19621
ltoes -43.7815
259
root 9.14346 13.5093 30.1244 -139.627 4.33693 177.658
lowerback -4.74644 -0.977681 -5.01378
upperback -1.80606 -0.911166 -1.60088
thorax 0.857715 -0.382002 1.11517
lowerneck -1.75292 -3.95557 -0.112763
upperneck -23.7224 -1.92456 6.30427
head -6.86164 -0.344594 2.04122
rclavicle -1.27222e-014 -2.22639e-014
rhumerus -21.6912 11.1553 -85.4928
rradius 60.6059
rwrist -9.86671
rhand -9.72025 -51.2886
rfingers 7.12502
rthumb -163.747 99.3726
lclavicle -1.27222e-014 -2.22639e-014
lhumerus -20.7284 -27.4601 79.9338
lradius 53.4337
lwrist 5.3783
lhand -27.7891 -15.2193
lfingers 7.12502
lthumb -1.18224 14.7572
rfemur -68.5773 7.65307 16.6977
rtibia 78.5317
rfoot -43.158 -10.7018
rtoes -37.5219
lfemur -70.3503 -5.62272 -21.0293
ltibia 81.0319
lfoot -28.7239 -0.867575
ltoes -43.8587
260
root 9.14474 13.7405 29.9308 -141.911 4.28475 177.693
lowerback -3.61785 -0.899229 -4.81307
upperback -1.69348 -0.903717 -1.62335
thorax 0.338894 -0.378645 0.994657
lowerneck -1.71804 -3.58962 -0.240392
upperneck -22.8249 -1.59454 6.32068
head -6.58364 -0.233768 2.0468
rclavicle -2.5842e-015 -3.85642e-014
rhumerus -21.5806 12.9747 -85.1434
rradius 63.5972
rwrist -9.03658
rhand -9.58113 -51.6985
rfingers 7.12502
rthumb -163.613 98.9737
lclavicle -2.5842e-015 -3.85642e-014
lhumerus -20.3058 -29.1884 79.1648
lradius 55.5276
lwrist 4.23342
lhand -28.6748 -15.7606
lfingers 7.12502
lthumb -2.03767 14.2094
rfemur -63.8439 7.77772 17.116
rtibia 75.7734
rfoot -41.6777 -10.5118
rtoes -38.201
lfemur -65.5005 -5.27831 -21.4088
ltibia 78.2022
lfoot -27.501 -0.438436
ltoes -44.0653
261
root 9.14953 13.9845 29.7263 -144.006 4.30759 177.886
lowerback -3.14315 -0.770313 -4.67653
upperback -1.38766 -0.77831 -1.54658
thorax 0.380045 -0.331722 1.00592
lowerneck -2.05307 -3.29807 -0.432859
upperneck -21.7037 -1.39678 6.30199
head -6.1685 -0.168193 2.05278
rclavicle -9.93923e-016 2.78299e-014
rhumerus -21.2708 14.7703 -84.4931
rradius 66.5215
rwrist -8.48814
rhand -9.554 -51.7005
rfingers 7.12502
rthumb -163.587 98.9739
lclavicle -9.93923e-016 2.78299e-014
lhumerus -19.5198 -30.7925 78.209
lradius 57.5456
lwrist 3.03711
lhand -29.1039 -16.0715
lfingers 7.12502
lthumb -2.45207 13.8942
rfemur -59.247 7.90111 17.6603
rtibia 72.9849
rfoot -40.0914 -10.3514
rtoes -40.6474
lfemur -60.8283 -4.63651 -21.6195
ltibia 75.236
lfoot -25.8714 -0.445722
ltoes -44.2333
262
root 9.14871 14.2293 29.4867 -146.204 4.55787 178.004
lowerback -1.944 -0.630066 -4.50575
upperback -1.79652 -0.680891 -1.62256
thorax -0.719455 -0.256072 0.849471
lowerneck -3.38667 -2.79417 -0.588988
upperneck -18.4138 -1.23983 6.29195
head -4.91234 -0.179245 2.03589
rclavicle -9.93923e-015 -6.75868e-015
rhumerus -22.3205 16.5538 -84.3361
rradius 69.248
rwrist -8.03678
rhand -9.56259 -51.6275
rfingers 7.12502
rthumb -163.595 99.0462
lclavicle -9.93923e-015 -6.75868e-015
lhumerus -20.3819 -32.4265 77.8338
lradius 59.5019
lwrist 1.70389
lhand -30.0453 -16.4863
lfingers 7.12502
lthumb -3.36123 13.467
rfemur -54.33 7.98232 18.018
rtibia 69.8656
rfoot -38.2115 -9.48585
rtoes -41.2389
lfemur -55.7056 -3.85742 -22.0429
ltibia 71.8337
lfoot -23.751 -0.545726
ltoes -44.0042
